<?xml version="1.0" encoding="utf-8"?>
<!-- Generator: Adobe Illustrator 27.0.0, SVG Export Plug-In . SVG Version: 6.00 Build 0)  -->
<svg version="1.1" id="Layer_1" xmlns="http://www.w3.org/2000/svg" xmlns:xlink="http://www.w3.org/1999/xlink" x="0px" y="0px"
	 viewBox="0 0 3000 2000" style="enable-background:new 0 0 3000 2000;" xml:space="preserve">
<style type="text/css">
	.st0{fill:url(#SVGID_1_);}
	.st1{opacity:0.46;fill:url(#SVGID_00000142176953300960159280000007109638441182246078_);}
	.st2{fill:#FFFEFB;}
</style>
<g>
	
		<linearGradient id="SVGID_1_" gradientUnits="userSpaceOnUse" x1="849.3806" y1="763.0067" x2="826.0575" y2="85.4252" gradientTransform="matrix(0.9773 0.2118 -0.2118 0.9773 84.4987 243.7945)">
		<stop  offset="0" style="stop-color:#9E734D"/>
		<stop  offset="1" style="stop-color:#E8BB8B"/>
	</linearGradient>
	<path class="st0" d="M924.69,611.03c0,0,66.53-47.66,148.7-24.47c36.62,10.33,70.61,41.9,87.52,75.98
		c17.33,34.91,23.58,75.21,17.65,113.72c-7.21,46.8-32.29,87.53-66.82,119.25c-35.46,32.58-79.45,54.05-122.42,75.79
		c-42.97,21.74-86.42,44.8-119.66,79.65c-33.24,34.85-55.1,83.99-45.8,131.24c-101.21-38.52-194.59-99.97-258.74-187.21
		c-47.96-65.22-82.1-142.49-86.37-223.33c-4.27-80.84,23.89-165.12,83.86-219.5c59.97-54.38,153.4-97.89,268.75-51.67
		C905.89,530.35,924.69,611.03,924.69,611.03z"/>
	
		<linearGradient id="SVGID_00000040558216904489999300000016859628747563711161_" gradientUnits="userSpaceOnUse" x1="760.2575" y1="1159.9896" x2="707.9935" y2="791.3429">
		<stop  offset="0" style="stop-color:#FFFFFF"/>
		<stop  offset="1" style="stop-color:#000000"/>
	</linearGradient>
	<path style="opacity:0.46;fill:url(#SVGID_00000040558216904489999300000016859628747563711161_);" d="M823.04,1181.69
		c0,0-134.3-113.76-36.31-200.56s-69.23-52.26-69.23-52.26s-60.66,30.8-61.6,34.53s-6.53,45.73-4.67,53.2
		C653.1,1024.06,707.39,1150.79,823.04,1181.69z"/>
	<path class="st2" d="M935.62,796.89c-9.81-12.94-17.6-27.7-19.5-43.83c-2.29-19.28,2.39-38.64,3.95-57.99
		c3.04-37.64-6.07-76.13-25.64-108.4c-2.58,39.34-14.19,78.14-33.99,111.66c1.17-0.08,2.34-0.1,3.5-0.06
		c1.86,0.21,3.71,0.43,5.51,0.69c1.81,0.31,3.59,0.59,5.36,0.82c1.76,0.27,3.5,0.54,5.23,0.85c1.73,0.4,3.44,0.79,5.12,1.21
		c1.67,0.53,3.33,1.03,4.96,1.61l4.75,1.99c6.18,2.92,11.84,6.67,16.45,11.34c-6.66-1.08-12.94-1.84-19.11-2.06l-4.57-0.11
		l-4.5,0.02l-4.41,0.15l-4.33,0.36c-1.44,0.19-2.86,0.55-4.24,0.88l-4.06,1.33c-1.32,0.48-2.62,0.86-3.96,1.03
		c-1.31,0.28-2.65,0.37-4.05,0.33c-1.06,0.03-11.65,0.63-11.74,0.74c-15.95,21.2-35.62,39.47-58.8,53.24
		c-36.62,21.77-79.25,44.36-112.78,70.63c-38.52,30.18-64.36,77.22-63.22,125.05c4.95,58.19,41.48,118.56,86.85,156.94
		c19.39,16.41,41.34,29.68,64.75,39.51c19.18,8.05,39.35,13.76,59.89,16.97c-0.59-0.32-1.17-0.64-1.76-0.96
		c-0.09-0.06-0.19-0.1-0.28-0.15c-41.45-22.65-82.68-51.92-108.55-92.25c-10.18-15.87-17.9-33.77-19.08-52.59
		c-1.18-18.73,4.88-39.33,19.16-52.2c14.25-12.84,36.56-5.13,51.73,1.72c13.83,6.25,28.14,12.97,42.35,18.96
		c13.77,5.81,29.69,14.05,44.77,14.11c13.92,0.06,28.89-7.3,33.18-20.54c2.64-8.07,0.98-16.82,0.58-25.3
		c-0.38-8.48,1.06-18.05,7.83-23.18c5.03-3.8,11.92-4.27,17.13-7.83c3.06-2.09,5.15-5.46,5.2-9.18
		c0.11-9.44-11.07-15.78-11.07-15.78s20.02-4.98,21.93-16.38c0.6-3.58-4.12-8.44-7.03-10.6c-2.31-1.72-5.67-13.02-7.5-19.77
		c-0.7-2.57,1.12-5.13,3.77-5.33c11.31-0.81,37.99-3.69,44.01-13.01C964.58,843.52,964.23,834.57,935.62,796.89z M901.54,768.02
		c-2.21,2.55-4.99,4.63-8.1,6.18c-3.1,1.57-6.62,2.35-10.2,2.33c-3.59-0.05-7.1-0.51-10.52-0.88c-3.43-0.39-6.75-1.06-9.97-1.96
		l-2.36-0.78c-0.78-0.29-1.56-0.57-2.3-0.88l-2.23-1.01l-2.15-1.1c-5.57-3.14-10.42-7.1-13.61-11.92
		c5.77,2.16,11.32,3.73,16.89,4.38l2.05,0.25l2.05,0.15l2.02,0.13l2.02,0.05c2.64,0.12,5.25,0.03,7.79-0.27
		c2.55-0.27,5.01-1,7.36-1.81c2.37-0.77,4.7-1.24,7.26-1.46c2.54-0.24,5.24-0.38,8.2-0.53c3-0.08,6.16-0.23,10.15-0.11
		C905.44,762.45,903.73,765.44,901.54,768.02z"/>
</g>
</svg>
